<?xml version="1.0" standalone="no"?><!DOCTYPE svg PUBLIC "-//W3C//DTD SVG 1.1//EN" "http://www.w3.org/Graphics/SVG/1.1/DTD/svg11.dtd"><svg class="icon" width="200px" height="200.00px" viewBox="0 0 1024 1024" version="1.1" xmlns="http://www.w3.org/2000/svg"><path d="M759.91 863.41H515.63c-47.74 0-94.21-9.48-138.13-28.18-42.4-18.05-80.48-43.82-113.2-76.6-32.37-32.42-57.78-70.01-75.53-111.73-18.44-43.34-27.75-89.21-27.67-136.34 0.08-47.62 9.51-93.8 28.03-137.27 17.88-41.98 43.43-79.64 75.93-111.94 32.5-32.29 70.31-57.59 112.39-75.2 43.59-18.24 89.85-27.38 137.51-27.16 94.69 0.44 183.23 37.58 249.33 104.59 66.12 67.04 102.06 156.14 101.2 250.89-0.38 41.88-8.05 82.8-22.79 121.65-14.25 37.55-34.71 72.18-60.82 102.93-5.28 6.22-5.97 15.03-1.72 21.92l19.38 31.44c8.98 14.57 9.36 32.18 1.02 47.13-8.34 14.94-23.54 23.86-40.65 23.86zM513.3 199c-83.03 0-161.12 32.18-220.04 90.73-59.28 58.9-92 137.35-92.15 220.9-0.15 82.44 32.35 160.47 91.51 219.73 29.07 29.12 62.91 52.02 100.56 68.05 38.94 16.58 80.14 24.98 122.46 24.98h244.28c3.35 0 5.03-2.11 5.73-3.36 0.7-1.26 1.61-3.79-0.14-6.64l-19.38-31.44c-13.37-21.69-11.24-49.34 5.29-68.8 23.15-27.26 41.29-57.95 53.91-91.23 13.06-34.41 19.85-70.69 20.19-107.82 0.77-84.03-31.08-163.02-89.68-222.43-58.57-59.38-137.07-92.29-221.04-92.68h-1.48z" fill="#333333" /><path d="M671.69 596.23c-46.96 0-85.17-38.21-85.17-85.17s38.21-85.17 85.17-85.17 85.17 38.21 85.17 85.17-38.21 85.17-85.17 85.17z m0-130.34c-24.91 0-45.17 20.26-45.17 45.17s20.26 45.17 45.17 45.17 45.17-20.26 45.17-45.17-20.26-45.17-45.17-45.17zM356.52 596.23c-46.96 0-85.17-38.21-85.17-85.17s38.21-85.17 85.17-85.17 85.17 38.21 85.17 85.17-38.21 85.17-85.17 85.17z m0-130.34c-24.91 0-45.17 20.26-45.17 45.17s20.26 45.17 45.17 45.17 45.17-20.26 45.17-45.17-20.26-45.17-45.17-45.17zM514.1 438.65c-22.75 0-44.14-8.86-60.22-24.94-16.09-16.09-24.94-37.47-24.94-60.22 0-46.96 38.21-85.17 85.17-85.17s85.17 38.21 85.17 85.17-38.21 85.17-85.17 85.17z m0-130.34c-24.91 0-45.17 20.26-45.17 45.17 0 12.06 4.7 23.41 13.23 31.94 8.53 8.53 19.87 13.23 31.94 13.23 24.91 0 45.17-20.26 45.17-45.17s-20.26-45.17-45.17-45.17zM514.1 753.82c-46.96 0-85.17-38.21-85.17-85.17s38.21-85.17 85.17-85.17 85.17 38.21 85.17 85.17-38.21 85.17-85.17 85.17z m0-130.34c-24.91 0-45.17 20.26-45.17 45.17s20.26 45.17 45.17 45.17 45.17-20.26 45.17-45.17-20.26-45.17-45.17-45.17z" fill="#333333" /></svg>