<?xml version="1.0" standalone="no"?><!DOCTYPE svg PUBLIC "-//W3C//DTD SVG 1.1//EN" "http://www.w3.org/Graphics/SVG/1.1/DTD/svg11.dtd"><svg class="icon" width="200px" height="200.00px" viewBox="0 0 1024 1024" version="1.1" xmlns="http://www.w3.org/2000/svg"><path d="M515.43 846.3c-22.89 0-44.45-8.9-60.7-25.08L216.62 583.94c-21.08-20.73-37.56-45.07-48.98-72.35-11.42-27.3-17.2-56.15-17.15-85.74 0-59.74 23.52-115.91 66.23-158.12 21.08-20.88 45.71-37.17 73.19-48.42 27.47-11.25 56.44-16.95 86.15-16.81 52.23 0 97.8 17.19 138.7 52.45 40.54-35.27 86.62-52.45 140.37-52.45 60.11 0 116.67 23.16 159.26 65.22 21.09 20.7 37.61 45.07 49.06 72.39 11.44 27.32 17.22 56.18 17.18 85.8 0 0.67 0.01 1.48 0.02 2.4 0.13 9.98 0.42 30.76-7.23 57.38-9.35 32.57-27.45 62.91-53.78 90.18-0.06 0.06-0.12 0.13-0.19 0.19L576.46 821.12l-0.09 0.09c-16.25 16.18-37.83 25.1-60.77 25.1h-0.16zM375.38 242.5c-49.25 0-95.57 19.04-130.54 53.67-35.06 34.65-54.36 80.71-54.36 129.71-0.07 48.44 19.69 95.66 54.22 129.59l0.1 0.1 238.15 237.32c8.69 8.65 20.24 13.42 32.51 13.42h0.09c12.3 0 23.85-4.76 32.55-13.41L790.94 548c50.61-52.46 49.92-102.64 49.7-119.14-0.02-1.13-0.03-2.12-0.03-2.97 0.07-48.47-19.72-95.72-54.3-129.65-35.1-34.66-81.68-53.73-131.2-53.73-24.51 0-46.45 4.22-67.08 12.9-20.42 8.59-39.06 21.33-56.98 38.95l-1.25 1.39a20.02 20.02 0 0 1-14.66 6.64c-5.54 0.1-10.81-2.16-14.63-6.13l-0.07-0.07c-36.55-36.12-77.27-53.68-124.47-53.68h-0.6z" fill="#333333" /><path d="M462.32 354.33c-5.15 0-10.29-1.97-14.2-5.92-7.78-7.84-7.72-20.51 0.12-28.28l54.25-53.79c7.84-7.78 20.51-7.72 28.28 0.12 7.78 7.84 7.72 20.51-0.12 28.28l-54.25 53.79c-3.9 3.87-8.99 5.8-14.08 5.8zM759.65 466.18h-0.03c-11.05-0.02-19.99-8.98-19.97-20.03 0.04-26.83-10.92-52.99-30.07-71.78-11.34-11.2-24.63-19.4-39.54-24.42-10.47-3.52-16.1-14.87-12.57-25.34 3.52-10.47 14.87-16.1 25.34-12.57 20.72 6.98 39.17 18.36 54.83 33.83 26.73 26.23 42.06 62.82 42 100.34-0.02 11.04-8.97 19.97-20 19.97z" fill="#333333" /></svg>