<?xml version="1.0" standalone="no"?><!DOCTYPE svg PUBLIC "-//W3C//DTD SVG 1.1//EN" "http://www.w3.org/Graphics/SVG/1.1/DTD/svg11.dtd"><svg class="icon" width="200px" height="200.00px" viewBox="0 0 1024 1024" version="1.1" xmlns="http://www.w3.org/2000/svg"><path d="M714.21 892.68H316.65c-88.12 0-159.82-71.69-159.82-159.82V295.9c0-88.12 71.69-159.82 159.82-159.82h321.76c32.11 0 62.54 12.25 85.69 34.5l111.96 107.59c24.13 23.19 37.98 55.69 37.98 89.17v365.52c0 88.12-71.69 159.82-159.82 159.82z m-397.56-716.6c-66.07 0-119.82 53.75-119.82 119.82v436.95c0 66.07 53.75 119.82 119.82 119.82h397.56c66.07 0 119.82-53.75 119.82-119.82V367.34c0-22.65-9.36-44.63-25.69-60.32L696.38 199.43c-15.66-15.05-36.25-23.34-57.97-23.34H316.65z" fill="#333333" /><path d="M615.9 505.46H414.96c-11.05 0-20-8.95-20-20s8.95-20 20-20H615.9c11.05 0 20 8.95 20 20s-8.95 20-20 20z" fill="#333333" /><path d="M515.43 692.55c-11.05 0-20-8.95-20-20V485.61c0-11.05 8.95-20 20-20s20 8.95 20 20v186.94c0 11.05-8.95 20-20 20z" fill="#333333" /><path d="M615.9 602.54H414.96c-11.05 0-20-8.95-20-20s8.95-20 20-20H615.9c11.05 0 20 8.95 20 20s-8.95 20-20 20zM515.43 488.14c-5.12 0-10.24-1.95-14.14-5.86l-67.14-67.14c-7.81-7.81-7.81-20.47 0-28.29 7.81-7.81 20.47-7.81 28.28 0l53 53 53-53c7.81-7.81 20.47-7.81 28.28 0 7.81 7.81 7.81 20.47 0 28.29l-67.14 67.14a19.92 19.92 0 0 1-14.14 5.86zM773.77 363h-65c-42.88 0-77.77-34.89-77.77-77.77V234c0-11.05 8.95-20 20-20s20 8.95 20 20v51.23c0 20.83 16.94 37.77 37.77 37.77h65c11.05 0 20 8.95 20 20s-8.95 20-20 20z" fill="#333333" /></svg>