<?xml version="1.0" standalone="no"?><!DOCTYPE svg PUBLIC "-//W3C//DTD SVG 1.1//EN" "http://www.w3.org/Graphics/SVG/1.1/DTD/svg11.dtd"><svg class="icon" width="200px" height="200.00px" viewBox="0 0 1024 1024" version="1.1" xmlns="http://www.w3.org/2000/svg"><path d="M831.49 725.83H362.93c-21.2 0-41.7-7.65-57.73-21.53a88.189 88.189 0 0 1-29.53-54.08l-54.25-377.29c-3.03-21.05-21.35-36.93-42.61-36.93h-40.46c-11.05 0-20-8.95-20-20s8.95-20 20-20h40.46c19.98 0 39.29 7.2 54.39 20.29a83.019 83.019 0 0 1 27.82 50.95l54.25 377.29c3.39 23.55 23.88 41.3 47.66 41.3h468.55c11.05 0 20 8.95 20 20s-8.95 20-20 20z" fill="#333333" /><path d="M303.86 646.12c-9.27 0-17.58-6.48-19.56-15.91-2.26-10.81 4.67-21.41 15.48-23.67l500.16-104.62c6.69-1.4 11.54-7.37 11.54-14.21V335.68c0-8-6.51-14.51-14.51-14.51H358.94c-11.05 0-20-8.95-20-20s8.95-20 20-20h438.04c30.06 0 54.51 24.45 54.51 54.51v152.03c0 25.66-18.23 48.1-43.35 53.36L307.98 645.69c-1.38 0.29-2.76 0.43-4.12 0.43zM385.87 845.84c-37.42 0-67.86-30.44-67.86-67.86 0-11.05 8.95-20 20-20s20 8.95 20 20c0 15.36 12.5 27.86 27.86 27.86s27.86-12.5 27.86-27.86c0-11.05 8.95-20 20-20s20 8.95 20 20c0 37.42-30.44 67.86-67.86 67.86zM743.19 845.84c-37.42 0-67.86-30.44-67.86-67.86 0-11.05 8.95-20 20-20s20 8.95 20 20c0 15.36 12.5 27.86 27.86 27.86s27.86-12.5 27.86-27.86c0-11.05 8.95-20 20-20s20 8.95 20 20c0 37.42-30.44 67.86-67.86 67.86z" fill="#333333" /></svg>