<?xml version="1.0" standalone="no"?><!DOCTYPE svg PUBLIC "-//W3C//DTD SVG 1.1//EN" "http://www.w3.org/Graphics/SVG/1.1/DTD/svg11.dtd"><svg class="icon" width="200px" height="200.00px" viewBox="0 0 1024 1024" version="1.1" xmlns="http://www.w3.org/2000/svg"><path d="M515.31 811.59a76.54 76.54 0 0 1-39.38-10.88c-77-46.17-196.87-43.2-244.83-39.78-16.88 1.21-33.66-4.72-46.04-16.24-12.36-11.51-19.44-27.79-19.44-44.67V315.64c0-14.52 5.17-28.6 14.57-39.66a60.817 60.817 0 0 1 36.91-20.71c148.62-23.27 244.87 25.21 279.36 47.14 24.33 14.93 38.85 40.74 38.85 69.06v330.69c0 11.05-8.95 20-20 20s-20-8.95-20-20v-330.7c0-14.29-7.39-27.37-19.78-34.96l-0.52-0.33c-30.67-19.5-116.56-62.55-251.72-41.38-10.08 1.58-17.67 10.54-17.67 20.85v384.38c0 5.9 2.38 11.37 6.7 15.4 4.34 4.04 10 6.04 15.93 5.62 66.64-4.75 127.1-0.89 179.71 11.48 43.55 10.24 72.18 24.08 88.54 33.89 5.66 3.39 12.16 5.18 18.81 5.18s13.16-1.79 18.81-5.18c16.36-9.81 45-23.65 88.54-33.89 52.61-12.37 113.07-16.23 179.7-11.48 5.93 0.42 11.59-1.57 15.93-5.62 4.32-4.02 6.7-9.49 6.7-15.4V315.64c0-10.31-7.6-19.27-17.67-20.85-103.14-16.16-177.91 4.99-222.46 25.57-10.03 4.63-21.91 0.26-26.54-9.77-4.63-10.03-0.26-21.91 9.77-26.54 49.57-22.9 132.39-46.48 245.43-28.78 14.36 2.25 27.47 9.61 36.91 20.71A61.286 61.286 0 0 1 865 315.64v384.38c0 16.88-7.09 33.16-19.44 44.67-12.38 11.53-29.16 17.45-46.04 16.24-47.96-3.42-167.83-6.39-244.83 39.78-11.87 7.12-25.49 10.88-39.38 10.88z" fill="#333333" /></svg>