<?xml version="1.0" standalone="no"?><!DOCTYPE svg PUBLIC "-//W3C//DTD SVG 1.1//EN" "http://www.w3.org/Graphics/SVG/1.1/DTD/svg11.dtd"><svg class="icon" width="200px" height="200.00px" viewBox="0 0 1024 1024" version="1.1" xmlns="http://www.w3.org/2000/svg"><path d="M289.92 876.45c-36.99 0-67.08-30.09-67.08-67.08v-7.88c0-11.05 8.95-20 20-20s20 8.95 20 20v7.88c0 14.93 12.15 27.08 27.08 27.08S317 824.3 317 809.37v-7.88c0-11.05 8.95-20 20-20s20 8.95 20 20v7.88c0 36.99-30.09 67.08-67.08 67.08zM740.92 876.45c-36.99 0-67.08-30.09-67.08-67.08v-7.88c0-11.05 8.95-20 20-20s20 8.95 20 20v7.88c0 14.93 12.15 27.08 27.08 27.08S768 824.3 768 809.37v-7.88c0-11.05 8.95-20 20-20s20 8.95 20 20v7.88c0 36.99-30.09 67.08-67.08 67.08zM600.98 260.94c-9.01 0-17.19-6.13-19.42-15.28l-9.12-37.5c-0.72-3.03-5.3-8.36-8.99-8.95-42.2-4.96-65.46-4.96-107.58-0.03-2.55 0.59-8.17 6.2-9.17 10.7-0.04 0.18-0.08 0.37-0.13 0.55l-8.95 35.34c-2.71 10.71-13.59 17.2-24.3 14.48-10.71-2.71-17.19-13.59-14.48-24.3l8.89-35.11c4.14-17.85 21.03-38.08 42.36-41.24 0.2-0.03 0.4-0.06 0.6-0.08 45.64-5.37 72.03-5.37 117.66 0 0.11 0.01 0.22 0.03 0.34 0.04 22.34 3.01 38.64 22.47 42.64 39.24l9.1 37.41c2.61 10.73-3.98 21.55-14.71 24.16-1.59 0.39-3.18 0.57-4.74 0.57zM223.06 449.78h-54.03c-11.05 0-20-8.96-20-20s8.96-20 20-20h54.03c11.05 0 20 8.96 20 20s-8.96 20-20 20zM861.06 449.78h-54.03c-11.05 0-20-8.96-20-20s8.96-20 20-20h54.03c11.05 0 20 8.96 20 20s-8.96 20-20 20z" fill="#333333" /><path d="M792.78 493.78h-556c-6 0-11.67-2.69-15.47-7.33a19.964 19.964 0 0 1-4.13-16.61l31.38-156.12c6.92-34.44 34.97-60.66 69.8-65.25 57.85-7.63 121.69-14.68 196.43-14.68s139.97 7 196.59 14.57c34.73 4.64 62.7 30.86 69.61 65.23l31.41 156.26c1.18 5.88-0.34 11.98-4.13 16.61a20 20 0 0 1-15.47 7.33z m-531.58-40h507.16l-26.6-132.32c-3.54-17.64-17.89-31.09-35.69-33.46-55.24-7.38-116.65-14.21-191.29-14.21s-134.7 6.89-191.2 14.34c-17.87 2.36-32.26 15.81-35.81 33.48L261.2 453.79z" fill="#333333" /><path d="M839.76 761.78H189.79c-16.35 0-32.12-6.87-43.24-18.86s-16.81-28.21-15.6-44.52l8.82-118.61c2.58-34.64 18.01-66.73 43.46-90.36 25.45-23.63 58.6-36.65 93.33-36.65h476.43c34.73 0 67.88 13.01 93.33 36.65 25.45 23.63 40.89 55.72 43.47 90.36l8.82 118.61c1.21 16.31-4.47 32.54-15.6 44.52s-26.89 18.86-43.24 18.86z m-563.2-269c-24.6 0-48.09 9.22-66.12 25.96s-28.97 39.47-30.79 64.01l-8.82 118.61c-0.4 5.33 1.39 10.42 5.03 14.34 3.64 3.92 8.58 6.08 13.93 6.08h649.97c5.35 0 10.29-2.16 13.93-6.08 3.64-3.92 5.42-9.01 5.03-14.34l-8.82-118.61c-1.82-24.54-12.76-47.27-30.79-64.01-18.03-16.74-41.51-25.96-66.12-25.96H276.56z" fill="#333333" /><path d="M286.03 675.28c-35.01 0-63.5-28.49-63.5-63.5s28.49-63.5 63.5-63.5 63.5 28.49 63.5 63.5-28.49 63.5-63.5 63.5z m0-87c-12.96 0-23.5 10.54-23.5 23.5s10.54 23.5 23.5 23.5 23.5-10.54 23.5-23.5-10.54-23.5-23.5-23.5zM741.03 675.28c-35.01 0-63.5-28.49-63.5-63.5s28.49-63.5 63.5-63.5 63.5 28.49 63.5 63.5-28.49 63.5-63.5 63.5z m0-87c-12.96 0-23.5 10.54-23.5 23.5s10.54 23.5 23.5 23.5 23.5-10.54 23.5-23.5-10.54-23.5-23.5-23.5z" fill="#333333" /></svg>