<?xml version="1.0" standalone="no"?><!DOCTYPE svg PUBLIC "-//W3C//DTD SVG 1.1//EN" "http://www.w3.org/Graphics/SVG/1.1/DTD/svg11.dtd"><svg class="icon" width="200px" height="200.00px" viewBox="0 0 1024 1024" version="1.1" xmlns="http://www.w3.org/2000/svg"><path d="M857.12 248h-693.5c-11.05 0-20-8.95-20-20s8.95-20 20-20h693.5c11.05 0 20 8.95 20 20s-8.95 20-20 20z" fill="#333333" /><path d="M744.98 852.57c-7.39 0-14.84-1.08-22.17-3.29l-192.63-57.9c-15.61-4.69-32.1-4.63-47.67 0.19l-183.99 56.9c-23.38 7.23-48.09 3.05-67.78-11.48-19.7-14.53-30.99-36.89-30.99-61.37V252.86c0-11.05 8.95-20 20-20s20 8.95 20 20v522.77c0 11.63 5.37 22.27 14.73 29.17 9.37 6.91 21.11 8.89 32.22 5.46l183.99-56.9c23.2-7.18 47.75-7.27 71-0.28l192.63 57.9c11.09 3.33 22.78 1.28 32.06-5.63 9.29-6.91 14.62-17.51 14.62-29.09v-523.4c0-11.05 8.95-20 20-20s20 8.95 20 20v523.4c0 24.35-11.21 46.65-30.75 61.19-13.4 9.96-29.17 15.12-45.28 15.12z" fill="#333333" /><path d="M681.63 436.45H490c-11.05 0-20-8.95-20-20s8.95-20 20-20h191.63c11.05 0 20 8.95 20 20s-8.95 20-20 20zM363.35 479.68c-34.87 0-63.23-28.37-63.23-63.23s28.37-63.23 63.23-63.23 63.23 28.37 63.23 63.23-28.37 63.23-63.23 63.23z m0-86.46c-12.81 0-23.23 10.42-23.23 23.23s10.42 23.23 23.23 23.23 23.23-10.42 23.23-23.23-10.42-23.23-23.23-23.23zM681.63 607.45H490c-11.05 0-20-8.95-20-20s8.95-20 20-20h191.63c11.05 0 20 8.95 20 20s-8.95 20-20 20zM363.35 650.68c-34.87 0-63.23-28.37-63.23-63.23s28.37-63.23 63.23-63.23 63.23 28.37 63.23 63.23-28.37 63.23-63.23 63.23z m0-86.46c-12.81 0-23.23 10.42-23.23 23.23s10.42 23.23 23.23 23.23 23.23-10.42 23.23-23.23-10.42-23.23-23.23-23.23z" fill="#333333" /></svg>