<?xml version="1.0" standalone="no"?><!DOCTYPE svg PUBLIC "-//W3C//DTD SVG 1.1//EN" "http://www.w3.org/Graphics/SVG/1.1/DTD/svg11.dtd"><svg class="icon" width="200px" height="200.00px" viewBox="0 0 1024 1024" version="1.1" xmlns="http://www.w3.org/2000/svg"><path d="M516.96 900.4c-22.7 0-45.4-4.44-66.55-13.31-24.79-10.4-48.67-23.4-70.99-38.65-40.6-27.81-76.18-61.75-105.77-100.88a462.49 462.49 0 0 1-68.49-126.66c-16.76-46.94-25.2-95.97-25.05-145.67V360.21c0-64.51 38.26-122.75 97.46-148.37l83.32-36.05c49.55-21.51 102.09-32.42 156.16-32.42s106.46 10.88 156.08 32.35l83.43 36.12c59.19 25.62 97.43 83.86 97.43 148.35v114.96c0.08 49.85-8.36 98.87-25.08 145.67-16.28 45.8-39.5 88.54-69 127-29.77 39.37-65.35 73.29-105.74 100.84a400.985 400.985 0 0 1-70.74 38.46c-21.12 8.86-43.8 13.29-66.48 13.29z m0.09-717.03c-48.55 0-95.74 9.8-140.25 29.12l-83.34 36.06a121.589 121.589 0 0 0-73.35 111.66v115.08c-0.13 45.12 7.52 89.58 22.75 132.22a422.817 422.817 0 0 0 62.65 115.85c27.03 35.75 59.48 66.7 96.5 92.06a360.777 360.777 0 0 0 63.88 34.78c32.45 13.61 69.66 13.62 102.1 0.02a360.578 360.578 0 0 0 63.66-34.61c36.82-25.11 69.26-56.05 96.41-91.97 0.03-0.04 0.06-0.08 0.09-0.11 26.97-35.15 48.2-74.22 63.1-116.14 15.17-42.48 22.83-86.96 22.76-132.22V360.18c0-48.54-28.78-92.36-73.32-111.65l-83.42-36.12c-44.57-19.28-91.74-29.06-140.2-29.06z" fill="#333333" /><path d="M516.07 691.29c-3.61 0-7.27-0.98-10.56-3.03-9.37-5.84-12.23-18.18-6.39-27.55l79.22-127.06c1.7-2.73 0.83-5.16 0.16-6.37-0.67-1.21-2.27-3.23-5.49-3.23H460.47c-17.03 0-32.63-9.31-40.72-24.29a46.223 46.223 0 0 1 2.02-47.37l77.6-118.35c6.06-9.24 18.45-11.81 27.69-5.76 9.24 6.06 11.82 18.45 5.76 27.69l-77.6 118.35c-1.79 2.73-0.94 5.2-0.27 6.43 0.66 1.23 2.27 3.29 5.53 3.29h112.54c16.81 0 32.31 9.13 40.47 23.82 8.15 14.69 7.7 32.68-1.19 46.94l-79.22 127.06c-3.79 6.08-10.32 9.42-16.99 9.42z" fill="#333333" /></svg>