<?xml version="1.0" standalone="no"?><!DOCTYPE svg PUBLIC "-//W3C//DTD SVG 1.1//EN" "http://www.w3.org/Graphics/SVG/1.1/DTD/svg11.dtd"><svg class="icon" width="200px" height="200.00px" viewBox="0 0 1024 1024" version="1.1" xmlns="http://www.w3.org/2000/svg"><path d="M716.91 599.37c-38.68 0-75.2-16.97-100.18-46.54 0 0.01-0.07 0.01-0.11 0.02-24.93 29.55-61.44 46.51-100.13 46.51s-75.2-16.97-100.18-46.54c0 0.01-0.07 0.01-0.11 0.02-24.93 29.55-61.45 46.51-100.13 46.51-72.28 0-131.09-58.8-131.09-131.08 0-11.05 8.95-20 20-20s20 8.95 20 20c0 50.22 40.86 91.08 91.09 91.08 26.88 0 52.25-11.79 69.62-32.35 7.61-9.01 18.76-14.17 30.59-14.17 11.83 0 22.98 5.17 30.58 14.17 17.37 20.56 42.74 32.35 69.62 32.35s52.25-11.79 69.62-32.35c7.61-9.01 18.76-14.17 30.59-14.17 11.83 0 22.98 5.17 30.58 14.17 17.37 20.56 42.74 32.35 69.62 32.35 50.22 0 91.09-40.86 91.09-91.08 0-11.05 8.95-20 20-20s20 8.95 20 20c0 72.28-58.8 131.08-131.09 131.08z" fill="#333333" /><path d="M828 479.13c-11.05 0-20-8.95-20-20 0-64.02-29.74-123.15-83.75-166.49-54.44-43.69-128.22-67.75-207.74-67.75s-153.67 23.77-207.79 66.93c-26.47 21.11-47.14 45.97-61.42 73.89-14.79 28.91-22.28 60.34-22.28 93.42 0 11.05-8.95 20-20 20s-20-8.95-20-20c0-77.27 35.08-147.8 98.77-198.58 61.18-48.79 143.83-75.65 232.73-75.65s171.27 27.19 232.78 76.55c63.66 51.09 98.72 121.29 98.72 197.69 0 11.05-8.95 20-20 20z" fill="#333333" /><path d="M320.17 442.86c-2.55 0-5.14-0.49-7.64-1.53-10.21-4.23-15.05-15.93-10.83-26.13 13.04-31.5 35.38-59.99 64.6-82.4 28.47-21.83 63.56-37.96 101.47-46.63 10.77-2.46 21.49 4.27 23.96 15.04 2.46 10.77-4.27 21.49-15.04 23.96-65.3 14.94-116.9 54.32-138.03 105.34-3.19 7.7-10.64 12.35-18.49 12.35zM516.5 847.76c-55.37 0-110.74-4.67-165.73-14.02a76.017 76.017 0 0 1-62.42-63.21l-28.1-178.9c-1.71-10.91 5.74-21.15 16.65-22.86 10.92-1.71 21.15 5.74 22.86 16.65l28.1 178.9a36.067 36.067 0 0 0 29.6 29.98c105.52 17.94 212.53 17.94 318.05 0 15.3-2.6 27.2-14.65 29.61-29.98l18.22-116.01c1.71-10.91 11.94-18.37 22.86-16.65 10.91 1.71 18.37 11.95 16.65 22.86l-18.22 116.01a76.04 76.04 0 0 1-62.42 63.21c-54.98 9.35-110.36 14.02-165.73 14.02z" fill="#333333" /><path d="M437.66 759.71c-9.88 0-18.47-7.31-19.8-17.37l-11.85-89.33c-1.45-10.95 6.25-21 17.2-22.46 10.95-1.46 21 6.25 22.46 17.2l11.85 89.33c1.45 10.95-6.25 21-17.2 22.46-0.89 0.12-1.78 0.18-2.65 0.18zM594.2 759.71c-0.88 0-1.76-0.06-2.65-0.18-10.95-1.45-18.65-11.51-17.2-22.46l11.85-89.33c1.45-10.95 11.5-18.65 22.46-17.2 10.95 1.45 18.65 11.51 17.2 22.46l-11.85 89.33c-1.33 10.06-9.93 17.37-19.8 17.37z" fill="#333333" /></svg>