<?xml version="1.0" standalone="no"?><!DOCTYPE svg PUBLIC "-//W3C//DTD SVG 1.1//EN" "http://www.w3.org/Graphics/SVG/1.1/DTD/svg11.dtd"><svg class="icon" width="200px" height="200.00px" viewBox="0 0 1024 1024" version="1.1" xmlns="http://www.w3.org/2000/svg"><path d="M885.2 479.6c-4.35 0-8.72-1.41-12.39-4.32L590.6 252.05c-21.8-17.25-49.12-26.75-76.92-26.75s-55.12 9.5-76.92 26.75L154.54 475.29c-8.66 6.85-21.24 5.39-28.09-3.28-6.85-8.66-5.38-21.24 3.28-28.09l282.21-223.23c28.84-22.81 64.97-35.37 101.74-35.37s72.9 12.56 101.74 35.37l282.21 223.23c8.66 6.85 10.13 19.43 3.28 28.09-3.95 4.99-9.79 7.59-15.7 7.59z" fill="#333333" /><path d="M693.66 835H333.69c-51.95 0-95.27-38.95-100.77-90.61l-28-263.1c-1.17-10.98 6.79-20.83 17.77-22 10.98-1.16 20.84 6.79 22 17.77l28 263.1A61.214 61.214 0 0 0 333.68 795h359.96c31.44 0 57.66-23.58 60.99-54.84l28-263.1c1.17-10.98 11.02-18.93 22-17.77 10.98 1.17 18.94 11.02 17.77 22l-28 263.1C788.9 796.05 745.58 835 693.63 835z" fill="#333333" /><path d="M603.12 555.09h-178.9c-11.05 0-20-8.95-20-20s8.95-20 20-20h178.9c11.05 0 20 8.95 20 20s-8.95 20-20 20z" fill="#333333" /><path d="M513.67 721.66c-11.05 0-20-8.95-20-20V535.22c0-11.05 8.95-20 20-20s20 8.95 20 20v166.44c0 11.05-8.95 20-20 20z" fill="#333333" /><path d="M603.12 641.52h-178.9c-11.05 0-20-8.95-20-20s8.95-20 20-20h178.9c11.05 0 20 8.95 20 20s-8.95 20-20 20zM513.67 539.67c-5.12 0-10.24-1.95-14.14-5.86l-59.78-59.78c-7.81-7.81-7.81-20.47 0-28.28 7.81-7.81 20.47-7.81 28.28 0l45.64 45.64 45.64-45.64c7.81-7.81 20.47-7.81 28.28 0s7.81 20.47 0 28.28l-59.78 59.78a19.92 19.92 0 0 1-14.14 5.86z" fill="#333333" /></svg>