<?xml version="1.0" standalone="no"?><!DOCTYPE svg PUBLIC "-//W3C//DTD SVG 1.1//EN" "http://www.w3.org/Graphics/SVG/1.1/DTD/svg11.dtd"><svg class="icon" width="200px" height="200.00px" viewBox="0 0 1024 1024" version="1.1" xmlns="http://www.w3.org/2000/svg"><path d="M442 911.3H324.94c-86.38 0-156.66-70.28-156.66-156.66V292.1c0-86.38 70.28-156.66 156.66-156.66h387.99c86.38 0 156.66 70.28 156.66 156.66V484c0 11.05-8.95 20-20 20s-20-8.95-20-20V292.1c0-64.32-52.33-116.66-116.66-116.66H324.94c-64.32 0-116.66 52.33-116.66 116.66v462.54c0 64.32 52.33 116.66 116.66 116.66H442c11.05 0 20 8.95 20 20s-8.95 20-20 20z" fill="#333333" /><path d="M652.66 908.22h-60.44c-38.17 0-69.22-31.05-69.22-69.22v-60.44c0-26.3 10.24-51.03 28.84-69.63l167-167c27.63-27.63 72.59-27.63 100.22 0l70.23 70.23c27.63 27.63 27.63 72.59 0 100.22l-167 167c-18.6 18.6-43.33 28.84-69.63 28.84z m116.29-347.03c-7.9 0-15.81 3.01-21.82 9.03l-167 167C569.09 748.26 563 762.95 563 778.57v60.44c0 16.11 13.11 29.22 29.22 29.22h60.44c15.62 0 30.3-6.08 41.35-17.13l167-167c12.03-12.03 12.03-31.61 0-43.65l-70.23-70.23c-6.02-6.02-13.92-9.03-21.82-9.03zM716.52 348.02H494.94c-11.05 0-20-8.95-20-20s8.95-20 20-20h221.58c11.05 0 20 8.95 20 20s-8.95 20-20 20zM362.14 393.42c-35.07 0-63.6-28.53-63.6-63.6s28.53-63.6 63.6-63.6 63.6 28.53 63.6 63.6-28.53 63.6-63.6 63.6z m0-87.19c-13.01 0-23.6 10.59-23.6 23.6s10.59 23.6 23.6 23.6 23.6-10.59 23.6-23.6-10.59-23.6-23.6-23.6zM606 553.02H494.94c-11.05 0-20-8.95-20-20s8.95-20 20-20H606c11.05 0 20 8.95 20 20s-8.95 20-20 20zM362.14 591.67c-35.07 0-63.6-28.53-63.6-63.6s28.53-63.6 63.6-63.6 63.6 28.53 63.6 63.6-28.53 63.6-63.6 63.6z m0-87.19c-13.01 0-23.6 10.59-23.6 23.6s10.59 23.6 23.6 23.6 23.6-10.59 23.6-23.6-10.59-23.6-23.6-23.6z" fill="#333333" /></svg>