<?xml version="1.0" standalone="no"?><!DOCTYPE svg PUBLIC "-//W3C//DTD SVG 1.1//EN" "http://www.w3.org/Graphics/SVG/1.1/DTD/svg11.dtd"><svg class="icon" width="200px" height="200.00px" viewBox="0 0 1024 1024" version="1.1" xmlns="http://www.w3.org/2000/svg"><path d="M737.03 621.56c-2.45 0-4.93-0.45-7.34-1.4l-196.5-77.64c-10.27-4.06-15.31-15.68-11.25-25.95 4.06-10.27 15.68-15.31 25.95-11.25l196.5 77.64c10.27 4.06 15.31 15.68 11.25 25.95-3.11 7.86-10.64 12.66-18.61 12.66zM472.03 621.56c-2.45 0-4.93-0.45-7.34-1.4l-196.5-77.64c-10.27-4.06-15.31-15.68-11.25-25.95 4.06-10.27 15.68-15.31 25.95-11.25l196.5 77.64c10.27 4.06 15.31 15.68 11.25 25.95-3.11 7.86-10.64 12.66-18.61 12.66z" fill="#333333" /><path d="M751.1 811.9H268.45c-48.94 0-88.75-38.19-88.75-85.14V270.04c0-45.79 38.82-83.04 86.53-83.04h133.76c11.05 0 20 8.95 20 20s-8.95 20-20 20H266.23c-25.66 0-46.53 19.31-46.53 43.04v456.73c0 24.89 21.87 45.14 48.75 45.14H751.1c26.88 0 48.75-20.25 48.75-45.14V270.04c0-23.73-20.87-43.04-46.53-43.04H614c-11.05 0-20-8.95-20-20s8.95-20 20-20h139.32c47.71 0 86.53 37.25 86.53 83.04v456.73c0 46.94-39.81 85.14-88.75 85.14z" fill="#333333" /><path d="M813.15 623.25H206.41c-11.05 0-20-8.95-20-20s8.95-20 20-20h606.74c11.05 0 20 8.95 20 20s-8.95 20-20 20zM124 428.19c-11.05 0-20-8.95-20-20V306.48c0-11.05 8.95-20 20-20s20 8.95 20 20v101.71c0 11.05-8.95 20-20 20zM895.3 428.19c-11.05 0-20-8.95-20-20V306.48c0-11.05 8.95-20 20-20s20 8.95 20 20v101.71c0 11.05-8.95 20-20 20zM326.92 888.45c-36.99 0-67.08-30.09-67.08-67.08v-7.88c0-11.05 8.95-20 20-20s20 8.95 20 20v7.88c0 14.93 12.15 27.08 27.08 27.08S354 836.3 354 821.37v-7.88c0-11.05 8.95-20 20-20s20 8.95 20 20v7.88c0 36.99-30.09 67.08-67.08 67.08zM689.92 888.45c-36.99 0-67.08-30.09-67.08-67.08v-7.88c0-11.05 8.95-20 20-20s20 8.95 20 20v7.88c0 14.93 12.15 27.08 27.08 27.08S717 836.3 717 821.37v-7.88c0-11.05 8.95-20 20-20s20 8.95 20 20v7.88c0 36.99-30.09 67.08-67.08 67.08zM593.31 274.65H426.24c-11.82 0-23.05-5.1-30.83-14a40.968 40.968 0 0 1-9.76-32.42l6.94-51.54c2.87-21.29 21.22-37.34 42.7-37.34h148.96c21.48 0 39.84 16.05 42.7 37.34l6.94 51.54a40.92 40.92 0 0 1-9.76 32.42c-7.78 8.89-19.02 14-30.83 14z m-158.02-95.3c-1.54 0-2.86 1.15-3.06 2.68l-6.94 51.54c-0.02 0.14-0.06 0.43 0.23 0.76 0.29 0.33 0.58 0.33 0.72 0.33h167.07c0.14 0 0.43 0 0.72-0.33s0.25-0.62 0.23-0.76l-6.94-51.54a3.1 3.1 0 0 0-3.06-2.68H435.3z" fill="#333333" /></svg>