<?xml version="1.0" standalone="no"?><!DOCTYPE svg PUBLIC "-//W3C//DTD SVG 1.1//EN" "http://www.w3.org/Graphics/SVG/1.1/DTD/svg11.dtd"><svg class="icon" width="200px" height="200.00px" viewBox="0 0 1024 1024" version="1.1" xmlns="http://www.w3.org/2000/svg"><path d="M750.85 824.33H272.82c-62.54 0-113.42-50.88-113.42-113.42V433.19c0-62.54 50.88-113.42 113.42-113.42h478.04c62.54 0 113.42 50.88 113.42 113.42v277.72c0 62.54-50.88 113.42-113.42 113.42zM272.82 359.77c-40.48 0-73.42 32.94-73.42 73.42v277.72c0 40.48 32.94 73.42 73.42 73.42h478.04c40.48 0 73.42-32.94 73.42-73.42V433.19c0-40.48-32.94-73.42-73.42-73.42H272.82z" fill="#333333" /><path d="M675.55 340.95c-9.39 0-17.76-6.64-19.61-16.19l-12.39-63.85c-3.59-18.49-19.86-31.91-38.69-31.91H418.81c-18.83 0-35.11 13.42-38.69 31.91l-12.39 63.85c-2.1 10.84-12.59 17.93-23.44 15.82-10.84-2.1-17.93-12.6-15.82-23.44l12.39-63.85c7.23-37.25 40.01-64.29 77.96-64.29h186.05c37.95 0 70.73 27.04 77.96 64.29l12.39 63.85c2.1 10.84-4.98 21.34-15.82 23.44-1.29 0.25-2.57 0.37-3.83 0.37zM699 701.35H324.67c-11.05 0-20-8.95-20-20s8.95-20 20-20H699c11.05 0 20 8.95 20 20s-8.95 20-20 20z" fill="#333333" /></svg>